<mxfile host="app.diagrams.net" modified="2024-04-21T05:45:10.561Z" agent="Mozilla/5.0 (Macintosh; Intel Mac OS X 10_15_7) AppleWebKit/605.1.15 (KHTML, like Gecko) Version/16.0 Safari/605.1.15" etag="IfkkmhAdcmTmt5RGgaOb" version="24.2.7" type="device">
  <diagram name="Page-1" id="IrOHq2AqLxPbR_PpP-B6">
    <mxGraphModel dx="863" dy="540" grid="1" gridSize="10" guides="1" tooltips="1" connect="1" arrows="1" fold="1" page="1" pageScale="1" pageWidth="827" pageHeight="1169" math="0" shadow="0">
      <root>
        <mxCell id="0" />
        <mxCell id="1" parent="0" />
        <mxCell id="-gYkHARMAzCKeNl-rw59-21" value="" style="rounded=1;whiteSpace=wrap;html=1;fillColor=#f5f5f5;fontColor=#333333;strokeColor=#666666;" vertex="1" parent="1">
          <mxGeometry x="40" y="20" width="640" height="520" as="geometry" />
        </mxCell>
        <mxCell id="-gYkHARMAzCKeNl-rw59-1" value="Requirement" style="rounded=0;whiteSpace=wrap;html=1;fillColor=#dae8fc;strokeColor=#6c8ebf;" vertex="1" parent="1">
          <mxGeometry x="100" y="220" width="120" height="60" as="geometry" />
        </mxCell>
        <mxCell id="-gYkHARMAzCKeNl-rw59-3" value="Product &amp;nbsp;Requirement" style="text;html=1;align=center;verticalAlign=middle;whiteSpace=wrap;rounded=0;fontStyle=5" vertex="1" parent="1">
          <mxGeometry x="100" y="39" width="130" height="30" as="geometry" />
        </mxCell>
        <mxCell id="-gYkHARMAzCKeNl-rw59-4" value="" style="endArrow=none;dashed=1;html=1;rounded=0;" edge="1" parent="1">
          <mxGeometry width="50" height="50" relative="1" as="geometry">
            <mxPoint x="240" y="520" as="sourcePoint" />
            <mxPoint x="240" y="70" as="targetPoint" />
          </mxGeometry>
        </mxCell>
        <mxCell id="-gYkHARMAzCKeNl-rw59-12" style="rounded=0;orthogonalLoop=1;jettySize=auto;html=1;exitX=1;exitY=0.5;exitDx=0;exitDy=0;entryX=0;entryY=0.5;entryDx=0;entryDy=0;" edge="1" parent="1" source="-gYkHARMAzCKeNl-rw59-5" target="-gYkHARMAzCKeNl-rw59-6">
          <mxGeometry relative="1" as="geometry" />
        </mxCell>
        <mxCell id="-gYkHARMAzCKeNl-rw59-13" style="rounded=0;orthogonalLoop=1;jettySize=auto;html=1;exitX=1;exitY=0.5;exitDx=0;exitDy=0;entryX=0;entryY=0.5;entryDx=0;entryDy=0;" edge="1" parent="1" source="-gYkHARMAzCKeNl-rw59-5" target="-gYkHARMAzCKeNl-rw59-8">
          <mxGeometry relative="1" as="geometry" />
        </mxCell>
        <mxCell id="-gYkHARMAzCKeNl-rw59-5" value="User Story 1" style="rounded=0;whiteSpace=wrap;html=1;fillColor=#d5e8d4;strokeColor=#82b366;" vertex="1" parent="1">
          <mxGeometry x="280" y="170" width="120" height="60" as="geometry" />
        </mxCell>
        <mxCell id="-gYkHARMAzCKeNl-rw59-6" value="Acceptance criteria 1" style="rounded=0;whiteSpace=wrap;html=1;fillColor=#ffe6cc;strokeColor=#d79b00;" vertex="1" parent="1">
          <mxGeometry x="480" y="110" width="120" height="60" as="geometry" />
        </mxCell>
        <mxCell id="-gYkHARMAzCKeNl-rw59-14" style="rounded=0;orthogonalLoop=1;jettySize=auto;html=1;exitX=1;exitY=0.5;exitDx=0;exitDy=0;" edge="1" parent="1" source="-gYkHARMAzCKeNl-rw59-7">
          <mxGeometry relative="1" as="geometry">
            <mxPoint x="480" y="260" as="targetPoint" />
          </mxGeometry>
        </mxCell>
        <mxCell id="-gYkHARMAzCKeNl-rw59-15" style="rounded=0;orthogonalLoop=1;jettySize=auto;html=1;exitX=1;exitY=0.5;exitDx=0;exitDy=0;entryX=0;entryY=0.5;entryDx=0;entryDy=0;" edge="1" parent="1" source="-gYkHARMAzCKeNl-rw59-7" target="-gYkHARMAzCKeNl-rw59-9">
          <mxGeometry relative="1" as="geometry" />
        </mxCell>
        <mxCell id="-gYkHARMAzCKeNl-rw59-20" style="rounded=0;orthogonalLoop=1;jettySize=auto;html=1;exitX=1;exitY=0.5;exitDx=0;exitDy=0;entryX=0;entryY=0.5;entryDx=0;entryDy=0;" edge="1" parent="1" source="-gYkHARMAzCKeNl-rw59-7" target="-gYkHARMAzCKeNl-rw59-19">
          <mxGeometry relative="1" as="geometry" />
        </mxCell>
        <mxCell id="-gYkHARMAzCKeNl-rw59-7" value="User Story 2" style="rounded=0;whiteSpace=wrap;html=1;fillColor=#d5e8d4;strokeColor=#82b366;" vertex="1" parent="1">
          <mxGeometry x="280" y="270" width="120" height="60" as="geometry" />
        </mxCell>
        <mxCell id="-gYkHARMAzCKeNl-rw59-8" value="Acceptance criteria 2" style="rounded=0;whiteSpace=wrap;html=1;fillColor=#ffe6cc;strokeColor=#d79b00;" vertex="1" parent="1">
          <mxGeometry x="480" y="230" width="120" height="60" as="geometry" />
        </mxCell>
        <mxCell id="-gYkHARMAzCKeNl-rw59-9" value="Acceptance criteria 3" style="rounded=0;whiteSpace=wrap;html=1;fillColor=#ffe6cc;strokeColor=#d79b00;" vertex="1" parent="1">
          <mxGeometry x="480" y="350" width="120" height="60" as="geometry" />
        </mxCell>
        <mxCell id="-gYkHARMAzCKeNl-rw59-10" value="" style="endArrow=classic;html=1;rounded=0;exitX=1;exitY=0.5;exitDx=0;exitDy=0;entryX=0;entryY=0.5;entryDx=0;entryDy=0;" edge="1" parent="1" source="-gYkHARMAzCKeNl-rw59-1" target="-gYkHARMAzCKeNl-rw59-5">
          <mxGeometry width="50" height="50" relative="1" as="geometry">
            <mxPoint x="390" y="340" as="sourcePoint" />
            <mxPoint x="440" y="290" as="targetPoint" />
          </mxGeometry>
        </mxCell>
        <mxCell id="-gYkHARMAzCKeNl-rw59-11" value="" style="endArrow=classic;html=1;rounded=0;entryX=0;entryY=0.5;entryDx=0;entryDy=0;" edge="1" parent="1" target="-gYkHARMAzCKeNl-rw59-7">
          <mxGeometry width="50" height="50" relative="1" as="geometry">
            <mxPoint x="220" y="250" as="sourcePoint" />
            <mxPoint x="290" y="210" as="targetPoint" />
          </mxGeometry>
        </mxCell>
        <mxCell id="-gYkHARMAzCKeNl-rw59-16" value="" style="endArrow=none;dashed=1;html=1;rounded=0;" edge="1" parent="1">
          <mxGeometry width="50" height="50" relative="1" as="geometry">
            <mxPoint x="440" y="520" as="sourcePoint" />
            <mxPoint x="440" y="70" as="targetPoint" />
          </mxGeometry>
        </mxCell>
        <mxCell id="-gYkHARMAzCKeNl-rw59-17" value="User Story" style="text;html=1;align=center;verticalAlign=middle;whiteSpace=wrap;rounded=0;fontStyle=5" vertex="1" parent="1">
          <mxGeometry x="280" y="39" width="130" height="30" as="geometry" />
        </mxCell>
        <mxCell id="-gYkHARMAzCKeNl-rw59-18" value="&lt;span style=&quot;text-decoration: none;&quot;&gt;Acceptance criteria&lt;/span&gt;" style="text;html=1;align=center;verticalAlign=middle;whiteSpace=wrap;rounded=0;fontStyle=5" vertex="1" parent="1">
          <mxGeometry x="480" y="39" width="130" height="30" as="geometry" />
        </mxCell>
        <mxCell id="-gYkHARMAzCKeNl-rw59-19" value="Acceptance criteria 4" style="rounded=0;whiteSpace=wrap;html=1;fillColor=#ffe6cc;strokeColor=#d79b00;" vertex="1" parent="1">
          <mxGeometry x="480" y="440" width="120" height="60" as="geometry" />
        </mxCell>
      </root>
    </mxGraphModel>
  </diagram>
</mxfile>
